<?xml version="1.0" encoding="UTF-8" standalone="no"?>
<!-- Created with Inkscape (http://www.inkscape.org/) -->

<svg
   xmlns:dc="http://purl.org/dc/elements/1.1/"
   xmlns:cc="http://creativecommons.org/ns#"
   xmlns:rdf="http://www.w3.org/1999/02/22-rdf-syntax-ns#"
   xmlns:svg="http://www.w3.org/2000/svg"
   xmlns="http://www.w3.org/2000/svg"
   xmlns:sodipodi="http://sodipodi.sourceforge.net/DTD/sodipodi-0.dtd"
   xmlns:inkscape="http://www.inkscape.org/namespaces/inkscape"
   version="1.1"
   width="12"
   height="12"
   id="svg4460"
   inkscape:version="0.91 r13725"
   sodipodi:docname="dam-12.svg">
  <sodipodi:namedview
     pagecolor="#ffffff"
     bordercolor="#666666"
     borderopacity="1"
     objecttolerance="10"
     gridtolerance="10"
     guidetolerance="10"
     inkscape:pageopacity="0"
     inkscape:pageshadow="2"
     inkscape:window-width="1119"
     inkscape:window-height="826"
     id="namedview12"
     showgrid="false"
     inkscape:zoom="9.8333333"
     inkscape:cx="12.559322"
     inkscape:cy="12"
     inkscape:window-x="0"
     inkscape:window-y="0"
     inkscape:window-maximized="0"
     inkscape:current-layer="svg4460" />
  <defs
     id="defs4462" />
  <metadata
     id="metadata4465">
    <rdf:RDF>
      <cc:Work
         rdf:about="">
        <dc:format>image/svg+xml</dc:format>
        <dc:type
           rdf:resource="http://purl.org/dc/dcmitype/StillImage" />
        <dc:title></dc:title>
      </cc:Work>
    </rdf:RDF>
  </metadata>
  <g
     id="g4230"
     transform="scale(0.5,0.5)">
    <rect
       style="visibility:hidden;fill:none;stroke:none"
       id="canvas"
       y="0"
       x="0"
       height="24"
       width="24" />
    <g
       id="g4224">
      <path
         style="color:#000000;display:inline;overflow:visible;visibility:visible;fill:#444444;fill-opacity:1;fill-rule:nonzero;stroke:none;stroke-width:2;marker:none;enable-background:accumulate"
         id="path7047-7"
         inkscape:connector-curvature="0"
         d="m 12.508986,12.471604 c 0.10553,0 0.21675,0.033 0.3125,0.062 l 0.871765,0.396909 0.0079,1.946891 -1.192195,-0.4063 -2.6874997,0.9375 c -0.10312,0.034 -0.20717,0.062 -0.3125,0.062 -0.10533,0 -0.21434,-0.032 -0.3125,-0.062 l -3.1875,-0.9375 -2.0000003,0.6563 0,-2.0313 1.6875003,-0.5625 c 0.0994,-0.033 0.20697,-0.062 0.3125,-0.062 0.10553,0 0.21062,0.029 0.3125,0.062 l 3.1875,0.9375 2.6874997,-0.9375 c 0.10552,-0.035 0.20697,-0.062 0.312505,-0.062 z"
         sodipodi:nodetypes="scccccscccccscccss" />
      <path
         style="color:#000000;display:inline;overflow:visible;visibility:visible;fill:#444444;fill-opacity:1;fill-rule:nonzero;stroke:none;stroke-width:2;marker:none;enable-background:accumulate"
         id="path7047-7-1"
         inkscape:connector-curvature="0"
         d="m 12.508986,15.886412 c 0.10553,0 0.21675,0.033 0.3125,0.062 l 0.871765,0.396909 0.0079,1.946891 -1.192195,-0.4063 -2.6874997,0.9375 c -0.10312,0.034 -0.20717,0.062 -0.3125,0.062 -0.10533,0 -0.21434,-0.032 -0.3125,-0.062 l -3.1875,-0.9375 -2.0000003,0.6563 0,-2.0313 1.6875003,-0.5625 c 0.0994,-0.033 0.20697,-0.062 0.3125,-0.062 0.10553,0 0.21062,0.029 0.3125,0.062 l 3.1875,0.9375 2.6874997,-0.9375 c 0.10552,-0.035 0.20697,-0.062 0.312505,-0.062 z"
         sodipodi:nodetypes="scccccscccccscccss" />
      <path
         style="color:#000000;display:inline;overflow:visible;visibility:visible;fill:#444444;fill-opacity:1;fill-rule:nonzero;stroke:none;stroke-width:2;marker:none;enable-background:accumulate"
         id="path7047-7-17"
         inkscape:connector-curvature="0"
         d="m 12.508986,8.8411214 c 0.10553,0 0.21675,0.033 0.3125,0.062 l 0.871765,0.396909 0.0079,1.9468906 -1.192195,-0.4063 -2.6874997,0.9375 c -0.10312,0.034 -0.20717,0.062 -0.3125,0.062 -0.10533,0 -0.21434,-0.032 -0.3125,-0.062 l -3.1875,-0.9375 -2.0000003,0.6563 0,-2.0312996 1.6875003,-0.5625 c 0.0994,-0.033 0.20697,-0.062 0.3125,-0.062 0.10553,0 0.21062,0.029 0.3125,0.062 l 3.1875,0.9375 2.6874997,-0.9375 c 0.10552,-0.035 0.20697,-0.062 0.312505,-0.062 z"
         sodipodi:nodetypes="scccccscccccscccss" />
      <path
         style="color:#000000;display:inline;overflow:visible;visibility:visible;fill:#444444;fill-opacity:1;fill-rule:nonzero;stroke:none;stroke-width:2;marker:none;enable-background:accumulate"
         id="path7047-7-1-7"
         inkscape:connector-curvature="0"
         d="m 14.512206,6.5334291 0,6.6250009 0,2.031301 0,1.968699 0,1.375 c 0,0.5 0.5,1 1,1 l 5,0 -4,-14.0000009 -1,0 c -0.5,0 -1,0.5 -1,1 z"
         sodipodi:nodetypes="scccssccss" />
    </g>
  </g>
</svg>
